<?xml version="1.0" encoding="utf-8"?>
<!-- Generator: Adobe Illustrator 16.0.4, SVG Export Plug-In . SVG Version: 6.00 Build 0)  -->
<!DOCTYPE svg PUBLIC "-//W3C//DTD SVG 1.1//EN" "http://www.w3.org/Graphics/SVG/1.1/DTD/svg11.dtd">
<svg version="1.1" id="Layer_1" xmlns="http://www.w3.org/2000/svg" xmlns:xlink="http://www.w3.org/1999/xlink" x="0px" y="0px"
	 width="95.333px" height="68.834px" viewBox="0 0 95.333 68.834" enable-background="new 0 0 95.333 68.834" xml:space="preserve">
<path fill="#00979C" stroke="#016363" stroke-miterlimit="10" d="M84.331,20.717L84.12,27.2l-4.529-0.006V7.205
	c0-2.74-2.223-4.963-4.963-4.963h-54.59c-2.741,0-4.963,2.223-4.963,4.963v54.59c0,2.74,2.222,4.963,4.963,4.963h54.59
	c2.74,0,4.963-2.223,4.963-4.963V39.45l4.521,0.007l0.166,6.482l8.224-12.597L84.331,20.717z"/>
<rect x="15.242" y="23.667" fill="none" width="64.424" height="25.167"/>
<text transform="matrix(1 0 0 1 28.0186 30.0571)"><tspan x="0" y="0" fill="#016363" font-family="'MyriadPro-Bold'" font-size="9">ARDUINO</tspan><tspan x="4.297" y="10" fill="#016363" font-family="'MyriadPro-Bold'" font-size="9">SIGNAL</tspan></text>
</svg>
